<?xml version="1.0" encoding="UTF-8"?>
<svg version="1.1" xmlns="http://www.w3.org/2000/svg" width="407" height="432">
<path d="M0 0 C134.31 0 268.62 0 407 0 C407 142.56 407 285.12 407 432 C272.69 432 138.38 432 0 432 C0 289.44 0 146.88 0 0 Z " fill="#FEFEFE" transform="translate(0,0)"/>
<path d="M0 0 C16.66405355 -0.07019032 33.32805888 -0.12303715 49.99222469 -0.15543652 C57.73029978 -0.17088231 65.46828283 -0.19192787 73.20629883 -0.22631836 C79.95351731 -0.25629101 86.70066911 -0.27559162 93.44795233 -0.28226548 C97.01810405 -0.28616448 100.58806505 -0.29527942 104.15815544 -0.31719017 C108.15101328 -0.34149508 112.14354296 -0.34196497 116.13647461 -0.34057617 C117.89730629 -0.35675491 117.89730629 -0.35675491 119.69371033 -0.3732605 C130.0102343 -0.33450539 138.48429715 1.62928344 146 9 C152.29296925 17.32589609 151.71062408 26.77802058 151.64697266 36.68359375 C151.65375748 38.46193331 151.66266546 40.24026584 151.67352295 42.01858521 C151.69622005 46.82447327 151.68751975 51.62982164 151.67162752 56.43571854 C151.65891866 61.47856286 151.67072244 66.52136273 151.67855835 71.56420898 C151.68764042 80.03084562 151.67570489 88.49726377 151.65185547 96.96386719 C151.62464701 106.73543145 151.63346219 116.50647399 151.6609875 126.27802563 C151.6837187 134.68600252 151.68685905 143.09382286 151.67379415 151.50182056 C151.66602168 156.51553199 151.66489721 161.52899864 151.68147659 166.54269409 C151.69598057 171.25764108 151.68579188 175.97191913 151.65700531 180.68679428 C151.65042605 182.41125252 151.65223772 184.1357676 151.66331863 185.86020279 C151.76542351 203.37207189 151.76542351 203.37207189 146 211 C139.58225883 217.29393579 131.68104526 220.3107519 122.70833772 220.38724393 C121.97192743 220.3785054 121.23551714 220.36976688 120.47679138 220.36076355 C119.6687253 220.36332682 118.86065921 220.3658901 118.02810627 220.36853105 C115.34722268 220.37343345 112.66691481 220.35703528 109.98608398 220.34057617 C108.05374668 220.33972913 106.1214084 220.34020654 104.18907166 220.34190369 C98.96241324 220.34276205 93.73596269 220.32516188 88.50935245 220.30418181 C83.04010502 220.28538863 77.57085249 220.28366249 72.10157776 220.28010559 C61.75328604 220.27079289 51.40508976 220.24618957 41.05684 220.21605712 C29.27210475 220.18248901 17.48736487 220.16602103 5.70259368 220.15097082 C-18.53165705 220.11963936 -42.76582317 220.06689391 -67 220 C-67.30834778 220.78215881 -67.61669556 221.56431763 -67.93438721 222.37017822 C-69.54561282 226.3465158 -71.65945335 230.00910308 -73.75 233.75 C-74.19520996 234.55115234 -74.64041992 235.35230469 -75.09912109 236.17773438 C-77.86182834 241.10391096 -80.74101231 245.87698951 -84.0390625 250.46875 C-85.17718396 251.98104253 -85.17718396 251.98104253 -85 254 C-79.39 256.97 -73.78 259.94 -68 263 C-67.67 261.68 -67.34 260.36 -67 259 C-65.68 259 -64.36 259 -63 259 C-63.33 260.98 -63.66 262.96 -64 265 C-60.04 266.98 -56.08 268.96 -52 271 C-52.33 272.32 -52.66 273.64 -53 275 C-53.54821915 274.96748642 -54.09643829 274.93497284 -54.66127014 274.901474 C-60.38622967 274.5711259 -66.11161571 274.30616212 -71.84155273 274.07836914 C-73.97711041 273.98496985 -76.11201633 273.87511982 -78.24584961 273.74829102 C-81.32119739 273.56840001 -84.39407051 273.44858566 -87.47265625 273.33984375 C-88.42084732 273.2715184 -89.36903839 273.20319305 -90.34596252 273.13279724 C-94.5058471 273.03716049 -96.96868674 273.0526286 -100.11691284 275.9446106 C-101.89491211 278.22671118 -103.45336427 280.55755189 -105 283 C-107.48637019 285.84156593 -109.05993741 287.6331463 -112.5625 289 C-115 289 -115 289 -117.3125 288 C-119 286 -119 286 -119.359375 282.81640625 C-118.87459072 277.66820798 -116.53488895 274.3375439 -113.75585938 270.16210938 C-111.9540763 267.28882345 -110.94834286 265.56390777 -111.26269531 262.13232422 C-111.98307053 259.07192224 -112.91960344 256.37286418 -114.14453125 253.48046875 C-114.57443359 252.45759766 -115.00433594 251.43472656 -115.44726562 250.38085938 C-116.12305664 248.80014648 -116.12305664 248.80014648 -116.8125 247.1875 C-117.25142578 246.14529297 -117.69035156 245.10308594 -118.14257812 244.02929688 C-120.43098537 238.61260632 -122.77177484 233.23696385 -125.30737305 227.9309082 C-126 226 -126 226 -126 222 C-121.47546433 223.27252566 -118.71133074 225.85271573 -115.3125 228.9296875 C-109.22719804 234.37767743 -102.94632582 239.68201368 -96 244 C-95.54173828 243.13955078 -95.54173828 243.13955078 -95.07421875 242.26171875 C-92.69978317 237.85396369 -90.32279105 233.48660516 -87.6796875 229.234375 C-80.21476791 217.06408632 -74.5027938 204.30033916 -68.86352539 191.21459961 C-68.54784103 190.4822963 -68.23215668 189.74999298 -67.90690613 188.99549866 C-67.30808097 187.60218903 -66.71211141 186.20764779 -66.11933899 184.81175232 C-64.107537 180.107537 -64.107537 180.107537 -63 179 C-61.5937816 178.82094851 -60.18002063 178.70030867 -58.765625 178.60546875 C-38.27925036 177.2582798 -38.27925036 177.2582798 -21 167 C-20.44699219 166.48695313 -19.89398438 165.97390625 -19.32421875 165.4453125 C-11.95079417 157.79744284 -10.39371152 148.45305661 -10.52954102 138.2097168 C-10.95513028 128.08296215 -14.66176541 120.96810434 -22 114 C-23.31646015 112.97788922 -24.64558611 111.97125733 -26 111 C-25.875 109.3125 -25.875 109.3125 -25 107 C-24.113125 106.319375 -23.22625 105.63875 -22.3125 104.9375 C-16.19991866 100.17999693 -12.3119662 91.47820734 -11 84 C-10.01335772 73.17776754 -12.34794665 64.6678271 -19 56 C-19.928125 55.154375 -20.85625 54.30875 -21.8125 53.4375 C-22.8953125 52.2309375 -22.8953125 52.2309375 -24 51 C-23.66094088 47.03926852 -22.12459279 43.8988152 -20.33984375 40.38671875 C-19.79690674 39.3105127 -19.25396973 38.23430664 -18.69458008 37.12548828 C-17.82482544 35.42368408 -17.82482544 35.42368408 -16.9375 33.6875 C-16.35057373 32.52718262 -15.76364746 31.36686523 -15.15893555 30.17138672 C-13.98481937 27.85026797 -12.8085056 25.53025941 -11.62988281 23.21142578 C-9.50529331 19.02525887 -7.4064541 14.82654796 -5.3125 10.625 C-4.70461428 9.40876059 -4.09655834 8.19260623 -3.48828125 6.9765625 C-2.99714844 5.99429688 -2.50601563 5.01203125 -2 4 C-1.33333333 2.66666667 -0.66666667 1.33333333 0 0 Z " fill="#4FE8FE" transform="translate(215,103)"/>
<path d="M0 0 C5.89313951 4.03810135 9.97287202 9.60112438 12.03515625 16.39453125 C12.98024169 26.16041415 8.98438119 33.92598742 4.22265625 42.20703125 C-2.45228323 54.10715943 -8.50996575 66.30821226 -14.58984375 78.51953125 C-15.08650543 79.51667145 -15.58316711 80.51381165 -16.09487915 81.54116821 C-18.7242523 86.82232749 -21.34960718 92.10546303 -23.96987915 97.3911438 C-24.96460986 99.39406031 -25.96472738 101.39429851 -26.96484375 103.39453125 C-51.38484375 103.39453125 -75.80484375 103.39453125 -100.96484375 103.39453125 C-100.96484375 148.27453125 -100.96484375 193.15453125 -100.96484375 239.39453125 C-89.41484375 239.39453125 -77.86484375 239.39453125 -65.96484375 239.39453125 C-69.3393077 250.64274441 -69.3393077 250.64274441 -71.55859375 255.59375 C-72.03167969 256.65787109 -72.50476563 257.72199219 -72.9921875 258.81835938 C-73.72115234 260.43387695 -73.72115234 260.43387695 -74.46484375 262.08203125 C-75.43378788 264.25251751 -76.4025431 266.42308812 -77.37109375 268.59375 C-77.79712891 269.54080811 -78.22316406 270.48786621 -78.66210938 271.46362305 C-80.12779969 274.76115158 -81.54937671 278.07515772 -82.96484375 281.39453125 C-90.15043539 281.5477587 -97.33559963 281.65219494 -104.52246094 281.72412109 C-106.96272526 281.75413228 -109.40288319 281.79495497 -111.84277344 281.84716797 C-139.53374862 282.42453499 -139.53374862 282.42453499 -148.87817383 273.58447266 C-156.88168422 264.1698326 -156.40462592 252.20207265 -156.36889648 240.55297852 C-156.37460762 238.8649348 -156.38157475 237.17689494 -156.38969421 235.48886108 C-156.40755808 230.92888652 -156.40647011 226.36910509 -156.40075183 221.80910611 C-156.39765031 217.99216305 -156.40376308 214.17525658 -156.40979058 210.35831875 C-156.42381181 201.34911807 -156.4222944 192.34001228 -156.41088867 183.33081055 C-156.39940822 174.05807187 -156.41348739 164.78562245 -156.44028515 155.51292187 C-156.46248457 147.53042815 -156.46907003 139.54802496 -156.46320873 131.56550258 C-156.45984829 126.80719917 -156.46219339 122.04908116 -156.47945976 117.29080391 C-156.49499477 112.81479879 -156.49090115 108.33922032 -156.47215462 103.86323166 C-156.46848689 102.22787364 -156.47152378 100.59248354 -156.48204041 98.95715523 C-156.54835713 87.78552661 -156.04472136 77.73922758 -148.33984375 68.95703125 C-142.35260899 62.90443367 -134.05113456 60.9566582 -125.80335999 60.83338928 C-124.82008224 60.83841965 -123.8368045 60.84345001 -122.82373047 60.84863281 C-121.75913101 60.83829514 -120.69453156 60.82795746 -119.59767151 60.81730652 C-116.11313407 60.78803974 -112.62918156 60.78638272 -109.14453125 60.78515625 C-106.71500552 60.77016378 -104.28548995 60.7534344 -101.85598755 60.73504639 C-95.48729974 60.69148094 -89.11874941 60.67139756 -82.74993896 60.65631104 C-76.24076241 60.6367011 -69.73173347 60.5947354 -63.22265625 60.5546875 C-50.47010224 60.47950231 -37.71757108 60.42837981 -24.96484375 60.39453125 C-23.93813305 55.28730509 -24.14565925 53.09139669 -26.67578125 48.48046875 C-27.55363281 46.84464844 -27.55363281 46.84464844 -28.44921875 45.17578125 C-29.073125 44.05171875 -29.69703125 42.92765625 -30.33984375 41.76953125 C-31.55949615 39.52924923 -32.77579273 37.28713609 -33.98828125 35.04296875 C-34.53403809 34.05474121 -35.07979492 33.06651367 -35.64208984 32.04833984 C-38.66727773 25.97897988 -39.16529856 19.22027976 -37.12890625 12.73046875 C-33.83768473 5.41909745 -29.28293151 1.55357513 -22.21484375 -1.98046875 C-14.56730038 -3.45115017 -7.04901677 -3.62045689 0 0 Z " fill="#FE5C29" transform="translate(195.96484375,41.60546875)"/>
<path d="M0 0 C9.24 0 18.48 0 28 0 C28 16.83 28 33.66 28 51 C43.51 51 59.02 51 75 51 C75 34.17 75 17.34 75 0 C84.57 0 94.14 0 104 0 C104 45.21 104 90.42 104 137 C94.1 137 84.2 137 74 137 C74 117.86 74 98.72 74 79 C59.15 79 44.3 79 29 79 C29 98.14 29 117.28 29 137 C19.43 137 9.86 137 0 137 C0 91.79 0 46.58 0 0 Z " fill="#FDFEFE" transform="translate(225,145)"/>
<path d="M0 0 C5.76575914 -0.07418336 11.53124017 -0.12861797 17.29736328 -0.16479492 C19.25867553 -0.17987695 21.21995408 -0.20034547 23.18115234 -0.22631836 C26.00106118 -0.26272731 28.82052392 -0.27973216 31.640625 -0.29296875 C32.51680481 -0.30845261 33.39298462 -0.32393646 34.29571533 -0.33988953 C37.82372224 -0.34086378 40.34130579 -0.31451846 43.55395508 1.21948242 C45.42792217 3.5269013 45.50257556 4.82554462 45.49609375 7.78125 C45.49673828 8.70550781 45.49738281 9.62976563 45.49804688 10.58203125 C45.47806641 11.54496094 45.45808594 12.50789062 45.4375 13.5 C45.44458984 14.46292969 45.45167969 15.42585937 45.45898438 16.41796875 C45.39480574 23.49736555 45.39480574 23.49736555 43.73027039 25.61651611 C41.61010987 27.31174706 40.59807315 27.37007276 37.91162109 27.35644531 C37.09422455 27.35944641 36.276828 27.36244751 35.43466187 27.36553955 C34.55645782 27.35319275 33.67825378 27.34084595 32.7734375 27.328125 C31.87001617 27.32625183 30.96659485 27.32437866 30.03579712 27.32244873 C28.12766831 27.31572859 26.21955326 27.30181482 24.31152344 27.28125 C21.37942819 27.25004712 18.44786994 27.24027489 15.515625 27.234375 C13.6640559 27.22520713 11.81249229 27.21483205 9.9609375 27.203125 C8.63755875 27.19675018 8.63755875 27.19675018 7.28744507 27.19024658 C1.11715834 27.11715834 1.11715834 27.11715834 0 26 C-0.08748207 24.07332493 -0.10697334 22.14348139 -0.09765625 20.21484375 C-0.09443359 19.04501953 -0.09121094 17.87519531 -0.08789062 16.66992188 C-0.07951172 15.43822266 -0.07113281 14.20652344 -0.0625 12.9375 C-0.05798828 11.70193359 -0.05347656 10.46636719 -0.04882812 9.19335938 C-0.03699608 6.12885883 -0.02051173 3.06445279 0 0 Z " fill="#FE5A28" transform="translate(127,226)"/>
<path d="M0 0 C6.08766034 -0.06877273 12.1739798 -0.12853536 18.26171875 -0.16479492 C20.33370524 -0.17990586 22.40565963 -0.20039541 24.47753906 -0.22631836 C27.45125233 -0.26260051 30.42454373 -0.27970298 33.3984375 -0.29296875 C34.32868744 -0.30845261 35.25893738 -0.32393646 36.21737671 -0.33988953 C37.07811798 -0.34011612 37.93885925 -0.34034271 38.82568359 -0.34057617 C39.58513275 -0.34723801 40.34458191 -0.35389984 41.12704468 -0.36076355 C41.74511993 -0.24171158 42.36319519 -0.12265961 43 0 C45.78095904 4.17143856 45.33070347 7.59962668 45.3125 12.5 C45.32861328 13.36753906 45.34472656 14.23507813 45.36132812 15.12890625 C45.36197266 15.96292969 45.36261719 16.79695313 45.36328125 17.65625 C45.36626221 18.41744141 45.36924316 19.17863281 45.37231445 19.96289062 C44.89268121 22.58719212 44.06483622 23.34482992 42 25 C40.04475403 25.36076355 40.04475403 25.36076355 37.80395508 25.34057617 C36.96331009 25.34034958 36.1226651 25.34012299 35.25654602 25.33988953 C34.35333115 25.32440567 33.45011627 25.30892181 32.51953125 25.29296875 C31.59154221 25.28872391 30.66355316 25.28447906 29.70744324 25.28010559 C26.74216757 25.26330662 23.7775704 25.22565216 20.8125 25.1875 C18.80274419 25.17245474 16.79297773 25.15876606 14.78320312 25.14648438 C9.85499677 25.11595026 4.92825823 25.05723139 0 25 C0 16.75 0 8.5 0 0 Z " fill="#FE5B28" transform="translate(127,173)"/>
<path d="M0 0 C3.12578143 1.6720747 5.39281175 3.7856235 7 7 C7.57717357 11.73093088 7.43416625 15.14717343 5.25 19.4375 C2.65393889 22.39412515 0.73176435 23.70087707 -3.1484375 24.37109375 C-7.38139331 24.4973398 -10.14342222 24.37350209 -13.5 21.625 C-17.32193569 17.61196753 -17.39055607 14.93731164 -17.359375 9.55078125 C-16.78039966 5.44131496 -15.00085071 3.78650423 -12 1 C-8.27533151 -0.86233425 -4.05504687 -0.57130829 0 0 Z " fill="#49EAFB" transform="translate(188,52)"/>
<path d="M0 0 C1.98 0 3.96 0 6 0 C5.01 2.97 4.02 5.94 3 9 C0.87491756 5.81237635 0.4979837 3.73487777 0 0 Z " fill="#FC5320" transform="translate(124,281)"/>
<path d="M0 0 C3.65316671 1.24976756 4.78065836 1.67098753 7 5 C4.69 4.67 2.38 4.34 0 4 C0 2.68 0 1.36 0 0 Z " fill="#5FECFA" transform="translate(89,325)"/>
<path d="M0 0 C1.32 0 2.64 0 4 0 C3.34 1.98 2.68 3.96 2 6 C1.34 6 0.68 6 0 6 C-1.125 2.25 -1.125 2.25 0 0 Z " fill="#70EDFE" transform="translate(148,362)"/>
</svg>
