<?xml version="1.0" encoding="UTF-8"?>
<svg version="1.1" xmlns="http://www.w3.org/2000/svg" width="407" height="432">
<path d="M0 0 C1.08917725 -0.0071553 2.17835449 -0.01431061 3.30053711 -0.02168274 C4.50617813 -0.02437164 5.71181915 -0.02706055 6.95399475 -0.02983093 C8.21579559 -0.03640213 9.47759644 -0.04297333 10.77763367 -0.04974365 C14.97711404 -0.07082979 19.17659493 -0.0811569 23.37611389 -0.09111023 C24.82244448 -0.09515745 26.26877487 -0.09927436 27.71510506 -0.10346031 C34.51639516 -0.12252963 41.31767435 -0.1367515 48.11898607 -0.14507228 C55.95904429 -0.15482242 63.79881848 -0.18107596 71.63877672 -0.22157317 C77.70259963 -0.25181468 83.76634159 -0.26654913 89.8302384 -0.26985329 C93.44907658 -0.27219661 97.06761198 -0.28106082 100.68636894 -0.30631447 C104.73408958 -0.33410148 108.78118455 -0.32973966 112.82899475 -0.32279968 C114.01641769 -0.33560974 115.20384064 -0.3484198 116.42724609 -0.36161804 C125.2977142 -0.30635395 133.0416385 1.18831401 139.84877014 7.20967102 C147.94733909 16.27163812 147.54806386 27.87965477 147.47547913 39.30171204 C147.47926886 41.01122989 147.48477427 42.72074467 147.49185181 44.43025208 C147.50573732 49.04389364 147.49468594 53.6571594 147.47814059 58.27077985 C147.46422117 63.11474684 147.4707579 67.95869353 147.47427368 72.80267334 C147.47697012 80.93376168 147.46354816 89.06470192 147.44032288 97.195755 C147.4137078 106.57813069 147.41197104 115.96025902 147.42371124 125.34265953 C147.43451318 134.39342872 147.42828358 143.44410899 147.41415596 152.49487114 C147.40841801 156.33553625 147.40846151 160.17613582 147.41322136 164.01680183 C147.41801526 168.54366409 147.40779013 173.07025758 147.38626671 177.59706879 C147.38073173 179.25218995 147.38020307 180.90733712 147.38521957 182.56245995 C147.44265857 204.24213789 147.44265857 204.24213789 140.41127014 212.02217102 C139.81185608 212.7208429 139.21244202 213.41951477 138.59486389 214.13935852 C128.96617592 221.5151344 118.45293215 220.60593849 106.94496155 220.3598175 C105.02212096 220.33414072 103.09925133 220.31056648 101.17636108 220.28892517 C97.05059207 220.24005283 92.92516982 220.18037973 88.79965591 220.11341667 C82.26794976 220.01152463 75.7364233 219.95886292 69.2040863 219.91744995 C68.0991302 219.91021249 66.99417409 219.90297502 65.85573447 219.89551824 C63.59716726 219.88076454 61.33859948 219.86609803 59.08003116 219.85151684 C43.88452642 219.75082823 28.69089163 219.61529471 13.49720764 219.35542297 C3.22977786 219.18018801 -7.0354265 219.07991214 -17.30437911 219.06496102 C-22.73211884 219.05401602 -28.15348229 219.00506858 -33.57952499 218.86390495 C-54.60505602 217.2052923 -54.60505602 217.2052923 -73.97496796 223.20175552 C-78.3743158 228.08256567 -80.55501036 233.38214034 -82.26453018 239.6604023 C-83.36420035 243.25056448 -85.14050196 245.8859157 -87.27622986 248.95967102 C-88.08833923 250.20683899 -88.08833923 250.20683899 -88.91685486 251.47920227 C-89.28294861 252.02963196 -89.64904236 252.58006165 -90.02622986 253.14717102 C-86.66760935 255.84903158 -83.07971718 257.81882274 -79.27622986 259.83467102 C-78.67423767 260.15500305 -78.07224548 260.47533508 -77.45201111 260.80537415 C-75.97834975 261.58898772 -74.50250791 262.36849835 -73.02622986 263.14717102 C-73.02622986 261.82717102 -73.02622986 260.50717102 -73.02622986 259.14717102 C-70.02622986 258.14717102 -70.02622986 258.14717102 -67.02622986 259.14717102 C-67.02622986 260.13717102 -67.02622986 261.12717102 -67.02622986 262.14717102 C-67.68622986 262.80717102 -68.34622986 263.46717102 -69.02622986 264.14717102 C-68.17158142 264.6292804 -67.31693298 265.11138977 -66.43638611 265.60810852 C-65.33165955 266.23974915 -64.22693298 266.87138977 -63.08872986 267.52217102 C-61.98658142 268.1486554 -60.88443298 268.77513977 -59.74888611 269.42060852 C-57.02622986 271.14717102 -57.02622986 271.14717102 -56.02622986 273.14717102 C-56.35622986 273.80717102 -56.68622986 274.46717102 -57.02622986 275.14717102 C-59.51573839 275.16829885 -62.0051574 275.18437186 -64.49473572 275.19526672 C-66.65834353 275.2049484 -68.82193227 275.22050413 -70.98545837 275.24165344 C-76.36814131 275.26567097 -81.62894817 275.15390346 -86.97935486 274.53779602 C-96.55007908 273.08747535 -96.55007908 273.08747535 -105.15513611 276.38935852 C-107.56583206 279.24450272 -107.56583206 279.24450272 -109.30747986 282.31513977 C-111.20428716 285.44056089 -112.97002173 287.16039809 -116.02622986 289.14717102 C-119.71372986 289.08467102 -119.71372986 289.08467102 -123.02622986 288.14717102 C-125.09724397 285.04064986 -125.37903457 283.95894299 -124.78404236 280.37373352 C-123.38615041 276.26652521 -120.8832516 272.72703732 -118.52232361 269.11201477 C-116.77157084 265.64250732 -116.69499564 264.0009868 -117.02622986 260.14717102 C-117.94785145 257.5221715 -118.91490502 255.07815419 -120.05357361 252.55342102 C-120.51613304 251.48879639 -120.51613304 251.48879639 -120.98803711 250.40266418 C-121.96968864 248.14618222 -122.9654626 245.89634599 -123.96372986 243.64717102 C-124.9569475 241.39742094 -125.94680667 239.14639 -126.92871094 236.89167786 C-127.53834604 235.49288431 -128.15457331 234.09693907 -128.77841187 232.704422 C-130.45972134 228.85918453 -131.52692015 225.31574216 -132.02622986 221.14717102 C-127.84045119 222.4155888 -125.23402669 224.53123458 -122.03794861 227.37373352 C-115.4271049 233.20154525 -108.45331698 238.41105749 -101.02622986 243.14717102 C-100.5505658 242.25191711 -100.5505658 242.25191711 -100.06529236 241.33857727 C-97.76965102 237.07071367 -95.47591385 232.82361276 -92.89341736 228.72138977 C-84.71722569 215.59667762 -78.67845798 201.54027761 -72.49327087 187.4042511 C-71.08326274 184.2737937 -69.58407078 181.20633584 -68.02622986 178.14717102 C-66.91505798 178.09818665 -65.80388611 178.04920227 -64.65904236 177.99873352 C-50.34485655 177.30774829 -35.75541177 176.48990425 -24.78013611 166.13545227 C-17.67615824 158.08216778 -15.57504465 148.95656457 -15.78013611 138.42451477 C-16.4211544 129.88777908 -19.43191596 122.65668374 -25.02622986 116.14717102 C-26.92969249 114.57068092 -26.92969249 114.57068092 -28.90122986 113.27217102 C-30.44810486 112.22029602 -30.44810486 112.22029602 -32.02622986 111.14717102 C-32.02622986 110.15717102 -32.02622986 109.16717102 -32.02622986 108.14717102 C-30.45201111 106.60420227 -30.45201111 106.60420227 -28.33872986 104.95967102 C-20.67098712 98.45699167 -17.44924692 91.08310431 -16.02622986 81.14717102 C-15.65705043 70.32283024 -19.15931564 61.54423732 -26.44029236 53.64326477 C-27.97230713 52.05394474 -27.97230713 52.05394474 -30.02622986 51.14717102 C-28.3561348 45.41867991 -25.72792914 40.2790189 -23.05357361 34.97138977 C-22.57046219 34.00562515 -22.08735077 33.03986053 -21.58959961 32.04483032 C-20.57191944 30.01248188 -19.55230248 27.98110225 -18.53086853 25.95063782 C-16.96153201 22.83030101 -15.3986845 19.70677875 -13.83677673 16.5827179 C-12.8469209 14.60791873 -11.85669937 12.63330282 -10.86607361 10.65888977 C-10.16139198 9.25119576 -10.16139198 9.25119576 -9.44247437 7.81506348 C-9.00854874 6.95359207 -8.57462311 6.09212067 -8.12754822 5.20454407 C-7.55368629 4.06253792 -7.55368629 4.06253792 -6.9682312 2.89746094 C-5.15063524 -0.47973158 -3.73974864 0.01678527 0 0 Z M4.97377014 42.14717102 C4.97377014 87.02717102 4.97377014 131.90717102 4.97377014 178.14717102 C14.21377014 178.14717102 23.45377014 178.14717102 32.97377014 178.14717102 C33.30377014 159.33717102 33.63377014 140.52717102 33.97377014 121.14717102 C56.74377014 120.65217102 56.74377014 120.65217102 79.97377014 120.14717102 C79.97377014 139.61717102 79.97377014 159.08717102 79.97377014 179.14717102 C89.54377014 178.81717102 99.11377014 178.48717102 108.97377014 178.14717102 C108.97377014 133.26717102 108.97377014 88.38717102 108.97377014 42.14717102 C99.40377014 42.14717102 89.83377014 42.14717102 79.97377014 42.14717102 C79.97377014 59.30717102 79.97377014 76.46717102 79.97377014 94.14717102 C64.46377014 94.14717102 48.95377014 94.14717102 32.97377014 94.14717102 C32.97377014 76.98717102 32.97377014 59.82717102 32.97377014 42.14717102 C23.73377014 42.14717102 14.49377014 42.14717102 4.97377014 42.14717102 Z " fill="#52E8FE" transform="translate(220.02622985839844,102.85282897949219)"/>
<path d="M0 0 C4.98884305 3.81499763 8.13479309 8.70816865 10.125 14.625 C10.4609375 17.203125 10.4609375 17.203125 10.5 19.875 C10.52835938 20.74640625 10.55671875 21.6178125 10.5859375 22.515625 C9.26501398 31.42626161 3.49833659 39.82368841 -0.625 47.6875 C-1.8884432 50.10847803 -3.14950907 52.53069005 -4.41015625 54.953125 C-5.01230957 56.11005859 -5.61446289 57.26699219 -6.23486328 58.45898438 C-9.15431836 64.0945148 -11.98396834 69.77269694 -14.79882812 75.4609375 C-16.11278779 78.10316492 -17.43907925 80.73906951 -18.765625 83.375 C-19.26940674 84.37748779 -19.77318848 85.37997559 -20.29223633 86.4128418 C-21.2880953 88.39416456 -22.2852793 90.37482202 -23.28393555 92.35473633 C-23.96129761 93.70474731 -23.96129761 93.70474731 -24.65234375 95.08203125 C-25.05702881 95.88616455 -25.46171387 96.69029785 -25.87866211 97.51879883 C-26.97757405 99.73302752 -26.97757405 99.73302752 -27.875 102.625 C-52.625 102.625 -77.375 102.625 -102.875 102.625 C-102.875 147.175 -102.875 191.725 -102.875 237.625 C-90.995 237.625 -79.115 237.625 -66.875 237.625 C-68.81887368 243.45662104 -70.78885971 249.06280949 -73.1953125 254.6875 C-73.49944061 255.40486328 -73.80356873 256.12222656 -74.11691284 256.86132812 C-74.75221428 258.35764443 -75.38920022 259.8532466 -76.02783203 261.34814453 C-77.00877701 263.6455561 -77.98325389 265.94563625 -78.95703125 268.24609375 C-79.57774829 269.7058894 -80.19882858 271.16553067 -80.8203125 272.625 C-81.11197296 273.31343994 -81.40363342 274.00187988 -81.70413208 274.71118164 C-83.7595277 279.5095277 -83.7595277 279.5095277 -84.875 280.625 C-87.59389489 280.79824135 -90.28953444 280.90935565 -93.01171875 280.9765625 C-94.25825981 281.01129166 -94.25825981 281.01129166 -95.52998352 281.04672241 C-97.30125536 281.09449593 -99.07259766 281.13971305 -100.84399414 281.18261719 C-103.50633428 281.24860784 -106.16810901 281.32684009 -108.83007812 281.40625 C-140.23879884 282.26328851 -140.23879884 282.26328851 -149.9375 273.83203125 C-158.80729905 264.57417849 -158.3109266 253.59112734 -158.26318359 241.58984375 C-158.26725377 239.86914742 -158.27259815 238.1484537 -158.27911377 236.42776489 C-158.29274014 231.77488365 -158.28750811 227.12220294 -158.27797651 222.46931839 C-158.27035561 217.58883391 -158.27743226 212.70836605 -158.28213501 207.82788086 C-158.28758549 199.6335951 -158.28041953 191.43939059 -158.26611328 183.24511719 C-158.24978814 173.78551821 -158.25507715 164.32611325 -158.2715925 154.86651897 C-158.28522753 146.729517 -158.28711717 138.59257326 -158.27927649 130.45556355 C-158.27461106 125.6023319 -158.27394395 120.7491913 -158.28388596 115.89596558 C-158.29258274 111.33221273 -158.28648436 106.76870885 -158.26920319 102.20498276 C-158.26525279 100.53492521 -158.26634746 98.86484653 -158.27299118 97.19479752 C-158.31441745 85.71913232 -158.07359663 76.15646513 -149.77734375 67.3515625 C-144.58993757 62.64348544 -139.18457779 60.49679272 -132.21795654 60.50474548 C-131.28690094 60.50337082 -130.35584534 60.50199615 -129.39657593 60.50057983 C-128.38237579 60.50417511 -127.36817566 60.50777039 -126.32324219 60.51147461 C-125.24976532 60.51132858 -124.17628845 60.51118256 -123.07028198 60.5110321 C-119.52079246 60.51172897 -115.97135536 60.51951086 -112.421875 60.52734375 C-109.96136504 60.52920873 -107.5008547 60.53063226 -105.04034424 60.53163147 C-98.56305924 60.53545033 -92.08579665 60.54527528 -85.60852051 60.55633545 C-78.99943342 60.5665631 -72.39034272 60.571132 -65.78125 60.57617188 C-52.81249044 60.58689808 -39.84374641 60.60377485 -26.875 60.625 C-26.85260757 59.36629593 -26.83021515 58.10759186 -26.80714417 56.81074524 C-26.78825056 55.74871368 -26.78825056 55.74871368 -26.76897526 54.66522694 C-26.9254883 51.65345707 -28.023151 49.53950484 -29.46484375 46.91796875 C-30.00173828 45.91958984 -30.53863281 44.92121094 -31.09179688 43.89257812 C-31.65962891 42.87615234 -32.22746094 41.85972656 -32.8125 40.8125 C-33.92727523 38.76513567 -35.04062439 36.71699402 -36.15234375 34.66796875 C-36.64984131 33.77102295 -37.14733887 32.87407715 -37.65991211 31.94995117 C-40.91148644 25.7283835 -40.99595369 17.9874376 -39.26171875 11.23828125 C-36.49253965 5.02897657 -31.30443005 0.03739612 -25.0390625 -2.54296875 C-16.49779261 -4.78900639 -7.71101102 -4.46426954 0 0 Z " fill="#FE5D2B" transform="translate(197.875,42.375)"/>
<path d="M0 0 C0.92370392 -0.0033284 1.84740784 -0.0066568 2.79910278 -0.01008606 C4.75782776 -0.01515983 6.71656142 -0.01749425 8.67529297 -0.01733398 C11.67560071 -0.01951691 14.67553883 -0.03765799 17.67578125 -0.05664062 C19.57551957 -0.05957513 21.47525965 -0.06155954 23.375 -0.0625 C24.27507782 -0.06968552 25.17515564 -0.07687103 26.10250854 -0.08427429 C27.35863449 -0.07965935 27.35863449 -0.07965935 28.64013672 -0.07495117 C29.74480789 -0.0770887 29.74480789 -0.0770887 30.87179565 -0.07926941 C32.8203125 0.16796875 32.8203125 0.16796875 35.8203125 2.16796875 C37.36175148 5.9050621 37.0412342 10.11810654 37.0703125 14.10546875 C37.0909375 14.80865234 37.1115625 15.51183594 37.1328125 16.23632812 C37.16701442 20.79800908 36.92086279 23.75678212 33.8203125 27.16796875 C30.60512718 27.89921285 27.43903503 27.77212489 24.15625 27.69140625 C23.20843658 27.68670319 22.26062317 27.68200012 21.28408813 27.67715454 C18.25376111 27.65578059 15.22517358 27.59913062 12.1953125 27.54296875 C10.14584972 27.52646692 8.09636839 27.51211749 6.046875 27.5 C2.30885878 27.46599037 -1.42898427 27.43137577 -5.16650391 27.36083984 C-5.91912506 27.34797943 -6.67174622 27.33511902 -7.44717407 27.3218689 C-9.1796875 27.16796875 -9.1796875 27.16796875 -10.1796875 26.16796875 C-10.27928371 24.32637852 -10.31049161 22.48099908 -10.3125 20.63671875 C-10.31378906 19.51652344 -10.31507812 18.39632812 -10.31640625 17.2421875 C-10.31253906 16.06269531 -10.30867188 14.88320312 -10.3046875 13.66796875 C-10.30855469 12.48847656 -10.31242187 11.30898437 -10.31640625 10.09375 C-10.31511719 8.97355469 -10.31382813 7.85335937 -10.3125 6.69921875 C-10.31137207 5.66345703 -10.31024414 4.62769531 -10.30908203 3.56054688 C-10.01344899 -1.90587544 -4.25063747 0.0052318 0 0 Z " fill="#FE5F2E" transform="translate(136.1796875,225.83203125)"/>
<path d="M0 0 C1.28154213 -0.00956978 1.28154213 -0.00956978 2.588974 -0.01933289 C3.51811111 -0.02044571 4.44724823 -0.02155853 5.40454102 -0.02270508 C6.35281265 -0.02603348 7.30108429 -0.02936188 8.27809143 -0.03279114 C10.28809116 -0.03786452 12.29809934 -0.04019934 14.30810547 -0.04003906 C17.39182346 -0.04222455 20.47518333 -0.06037316 23.55883789 -0.0793457 C25.50740437 -0.08227967 27.45597256 -0.08426444 29.40454102 -0.08520508 C30.79521034 -0.09598335 30.79521034 -0.09598335 32.213974 -0.10697937 C33.07148758 -0.10390274 33.92900116 -0.10082611 34.8125 -0.09765625 C35.56893295 -0.09908127 36.32536591 -0.10050629 37.10472107 -0.10197449 C38.97094727 0.14526367 38.97094727 0.14526367 40.97094727 2.14526367 C42.29828495 8.79349417 42.69607273 16.54049759 40.97094727 23.14526367 C39.40753724 25.12093777 38.52876038 26.04005943 36.02243042 26.51275635 C35.28598297 26.50911072 34.54953552 26.50546509 33.79077148 26.50170898 C32.53464554 26.50621063 32.53464554 26.50621063 31.25314331 26.51080322 C29.90302658 26.49228302 29.90302658 26.49228302 28.52563477 26.47338867 C27.6000174 26.4715155 26.67440002 26.46964233 25.72073364 26.4677124 C23.76552729 26.46099171 21.81033438 26.44707686 19.85522461 26.42651367 C16.85070408 26.39531307 13.8467076 26.38553885 10.84204102 26.37963867 C8.94489915 26.37047074 7.04776266 26.36009564 5.15063477 26.34838867 C4.24650848 26.34413879 3.3423822 26.33988892 2.41085815 26.33551025 C-3.91189626 26.26242014 -3.91189626 26.26242014 -5.02905273 25.14526367 C-5.12851726 23.37667174 -5.15985491 21.60414916 -5.16186523 19.83276367 C-5.1631543 18.75768555 -5.16444336 17.68260742 -5.16577148 16.57495117 C-5.1599707 14.87725586 -5.1599707 14.87725586 -5.15405273 13.14526367 C-5.15791992 12.0134668 -5.16178711 10.88166992 -5.16577148 9.71557617 C-5.16448242 8.64049805 -5.16319336 7.56541992 -5.16186523 6.45776367 C-5.1607373 5.46389648 -5.15960938 4.4700293 -5.15844727 3.44604492 C-4.94031798 -0.43254078 -3.47278292 0.01751839 0 0 Z " fill="#FE5C29" transform="translate(131.029052734375,172.854736328125)"/>
<path d="M0 0 C3.12578143 1.6720747 5.39281175 3.7856235 7 7 C7.57717357 11.73093088 7.43416625 15.14717343 5.25 19.4375 C2.65393889 22.39412515 0.73176435 23.70087707 -3.1484375 24.37109375 C-7.38139331 24.4973398 -10.14342222 24.37350209 -13.5 21.625 C-17.32193569 17.61196753 -17.39055607 14.93731164 -17.359375 9.55078125 C-16.78039966 5.44131496 -15.00085071 3.78650423 -12 1 C-8.27533151 -0.86233425 -4.05504687 -0.57130829 0 0 Z " fill="#49EAFB" transform="translate(188,52)"/>
<path d="M0 0 C0.99 0 1.98 0 3 0 C3 0.66 3 1.32 3 2 C2.34 2 1.68 2 1 2 C1 9.26 1 16.52 1 24 C3.75923828 23.98453125 3.75923828 23.98453125 6.57421875 23.96875 C13.99545812 23.96875 21.39764206 24.21166606 28.8125 24.5 C30.08931641 24.54769531 31.36613281 24.59539062 32.68164062 24.64453125 C35.78784841 24.76086862 38.89395572 24.87938938 42 25 C42 25.33 42 25.66 42 26 C36.03686834 26.02464574 30.07376605 26.042834 24.1105957 26.05493164 C22.08031702 26.05997278 20.05004198 26.06680557 18.01977539 26.07543945 C15.10822653 26.08751467 12.1967255 26.09323034 9.28515625 26.09765625 C7.91485008 26.10539818 7.91485008 26.10539818 6.51686096 26.11329651 C4.34424573 26.11349168 2.17172704 26.06211805 0 26 C-1.71567792 24.28432208 -1.13015825 22.02627265 -1.1328125 19.6875 C-1.13410156 18.61242187 -1.13539062 17.53734375 -1.13671875 16.4296875 C-1.13091797 14.73199219 -1.13091797 14.73199219 -1.125 13 C-1.12886719 11.86820313 -1.13273437 10.73640625 -1.13671875 9.5703125 C-1.13542969 8.49523437 -1.13414063 7.42015625 -1.1328125 6.3125 C-1.13168457 5.31863281 -1.13055664 4.32476562 -1.12939453 3.30078125 C-1 1 -1 1 0 0 Z " fill="#FE8D6D" transform="translate(127,173)"/>
<path d="M0 0 C0 0.66 0 1.32 0 2 C-2.71573184 4.35242324 -5.55556204 6.51450401 -8.3984375 8.7109375 C-10.76485181 10.79309784 -11.90188957 12.1025761 -13 15 C-13.66 15 -14.32 15 -15 15 C-13.19587222 9.04637831 -9.26783148 4.59779036 -4.25 1.0625 C-2 0 -2 0 0 0 Z " fill="#FE7249" transform="translate(57,105)"/>
<path d="M0 0 C0.33 0 0.66 0 1 0 C0.54009491 5.33489907 -0.06722111 9.37523328 -3 14 C-3.99 14.33 -4.98 14.66 -6 15 C-4.36041242 9.76727367 -2.61047965 4.84803364 0 0 Z " fill="#75ECFB" transform="translate(149,287)"/>
<path d="M0 0 C0.66 1.32 1.32 2.64 2 4 C0.02 6.31 -1.96 8.62 -4 11 C-4.66 10.67 -5.32 10.34 -6 10 C-4.02 6.7 -2.04 3.4 0 0 Z " fill="#6BEDFD" transform="translate(131,325)"/>
<path d="M0 0 C0.33 0 0.66 0 1 0 C1.19456705 1.95764383 1.38044247 3.91615321 1.5625 5.875 C1.66691406 6.96554688 1.77132812 8.05609375 1.87890625 9.1796875 C2 12 2 12 1 14 C0.34 14 -0.32 14 -1 14 C-0.67 9.38 -0.34 4.76 0 0 Z " fill="#7BECFD" transform="translate(205,241)"/>
<path d="M0 0 C-0.99 1.485 -0.99 1.485 -2 3 C-5 3.3125 -5 3.3125 -8 3 C-8.66 2.34 -9.32 1.68 -10 1 C-6.61981469 -0.04005702 -3.5219721 -0.08004482 0 0 Z " fill="#FE6D42" transform="translate(67,103)"/>
<path d="M0 0 C0.33 0 0.66 0 1 0 C0.93993922 1.45947705 0.8511311 2.91779272 0.75 4.375 C0.70359375 5.18710938 0.6571875 5.99921875 0.609375 6.8359375 C0 9 0 9 -2.046875 10.2890625 C-3.01367188 10.64097656 -3.01367188 10.64097656 -4 11 C-3.71125 10.29875 -3.4225 9.5975 -3.125 8.875 C-1.97866412 5.94547497 -0.97374346 2.99078347 0 0 Z " fill="#7DEDFC" transform="translate(203,190)"/>
<path d="M0 0 C0.625 1.8125 0.625 1.8125 1 4 C0.01 5.485 0.01 5.485 -1 7 C-1.66 7 -2.32 7 -3 7 C-3 7.99 -3 8.98 -3 10 C-3.66 10 -4.32 10 -5 10 C-3.66511872 6.40608886 -2.03977277 3.24509304 0 0 Z " fill="#81EEFC" transform="translate(103,369)"/>
<path d="M0 0 C0.99 0.33 1.98 0.66 3 1 C3.33 2.98 3.66 4.96 4 7 C3.01 6.67 2.02 6.34 1 6 C0.67 4.02 0.34 2.04 0 0 Z " fill="#88F0FB" transform="translate(95,384)"/>
<path d="M0 0 C0 0.99 0 1.98 0 3 C-0.99 3.33 -1.98 3.66 -3 4 C-3 3.34 -3 2.68 -3 2 C-3.99 2 -4.98 2 -6 2 C-6 1.34 -6 0.68 -6 0 C-3.50907189 -1.24546405 -2.58919267 -0.7767578 0 0 Z " fill="#B2F5FE" transform="translate(153,362)"/>
<path d="M0 0 C1.32 0 2.64 0 4 0 C4 0.66 4 1.32 4 2 C0.53846154 5 0.53846154 5 -2 5 C-1.34 3.35 -0.68 1.7 0 0 Z " fill="#63EEFC" transform="translate(215,103)"/>
<path d="M0 0 C-0.33 0.99 -0.66 1.98 -1 3 C-3.31 2.67 -5.62 2.34 -8 2 C-4.91190305 0.23537317 -3.76687864 0 0 0 Z " fill="#FD6940" transform="translate(180,39)"/>
</svg>
